<svg xmlns="http://www.w3.org/2000/svg" viewBox="0 0 1600 900" width="1600" height="900">
    <style>
      text { font-family: -apple-system,BlinkMacSystemFont,"Noto Sans CJK SC","Noto Sans CJK JP",Arial,sans-serif; }
      .title { fill:#eef1f6; font-size:21px; font-weight:700; }
      .avatar { fill:white; font-size:70px; font-weight:700; }
      .name { fill:#f1f3f8; font-size:18px; font-weight:700; }
      .label { fill:#f1f3f7; font-size:21px; font-weight:700; }
      .sub { fill:#aeb6c4; font-size:15px; }
      .timestamp { fill:#7aa8ff; font-size:13px; }
      .subtitle { fill:#fff; }
    </style>
    <rect width="1600" height="900" fill="#17191e"/>
    <rect x="38" y="30" width="1524" height="840" rx="28" fill="#23262d"/>
    <path d="M66 30h1468a28 28 0 0 1 28 28v38H38V58a28 28 0 0 1 28-28z" fill="#2d3038"/>
    <circle cx="72" cy="62" r="9" fill="#ff5f57"/><circle cx="102" cy="62" r="9" fill="#febc2e"/><circle cx="132" cy="62" r="9" fill="#28c840"/>
    <text x="800" y="70" text-anchor="middle" class="title">Weekly Product Sync</text>
    <rect x="74" y="126" width="664" height="304" rx="24" fill="#3b414d"/>
    <circle cx="406" cy="270" r="70" fill="#8db2ff"/><text x="406" y="294" text-anchor="middle" class="avatar">M</text>
    <rect x="92" y="376" width="132" height="36" rx="12" fill="#1d2026"/><text x="106" y="401" class="name">Maya</text>
    <g transform="translate(696,394)" stroke="#d6dae2" stroke-width="2" fill="none"><ellipse cx="0" cy="-3" rx="8" ry="9"/><path d="M0 6v8M-7 14h14"/></g>
    <rect x="762" y="126" width="664" height="304" rx="24" fill="#3e3948"/>
    <circle cx="1094" cy="270" r="70" fill="#b5a0ff"/><text x="1094" y="294" text-anchor="middle" class="avatar">K</text>
    <rect x="780" y="376" width="132" height="36" rx="12" fill="#1d2026"/><text x="794" y="401" class="name">Ken</text>
    <g transform="translate(1384,394)" stroke="#d6dae2" stroke-width="2" fill="none"><ellipse cx="0" cy="-3" rx="8" ry="9"/><path d="M0 6v8M-7 14h14"/></g>
    <rect x="74" y="454" width="664" height="304" rx="24" fill="#38454b"/>
    <circle cx="406" cy="598" r="70" fill="#86d0c9"/><text x="406" y="622" text-anchor="middle" class="avatar">L</text>
    <rect x="92" y="704" width="132" height="36" rx="12" fill="#1d2026"/><text x="106" y="729" class="name">Lina</text>
    <g transform="translate(696,722)" stroke="#d6dae2" stroke-width="2" fill="none"><ellipse cx="0" cy="-3" rx="8" ry="9"/><path d="M0 6v8M-7 14h14"/></g>
    <rect x="762" y="454" width="664" height="304" rx="24" fill="#45403a"/>
    <circle cx="1094" cy="598" r="70" fill="#e1b386"/><text x="1094" y="622" text-anchor="middle" class="avatar">A</text>
    <rect x="780" y="704" width="132" height="36" rx="12" fill="#1d2026"/><text x="794" y="729" class="name">Arjun</text>
    <g transform="translate(1384,722)" stroke="#d6dae2" stroke-width="2" fill="none"><ellipse cx="0" cy="-3" rx="8" ry="9"/><path d="M0 6v8M-7 14h14"/></g>
    <rect x="516" y="790" width="568" height="58" rx="22" fill="#2e323a"/>
    <g fill="#3a3f48"><circle cx="572" cy="819" r="18"/><circle cx="652" cy="819" r="18"/><circle cx="732" cy="819" r="18"/><circle cx="812" cy="819" r="18"/><circle cx="892" cy="819" r="18"/><circle cx="972" cy="819" r="18"/></g><circle cx="1032" cy="819" r="18" fill="#d65050"/>
    <g stroke="#e7eaf0" stroke-width="3" fill="none"><path d="M560 819h24"/><rect x="642" y="810" width="20" height="18" stroke-width="2"/><circle cx="732" cy="820" r="10" stroke-width="2"/><path d="M802 828l10-20 10 20z" stroke-width="2"/><rect x="882" y="810" width="20" height="18" stroke-width="2"/><circle cx="972" cy="820" r="10" stroke-width="2"/></g><path d="M1024 819h16" stroke="#fff" stroke-width="3"/>
    <rect x="78" y="110" width="420" height="68" rx="18" fill="#1b1e24"/><text x="102" y="144" class="label">跨语言会议</text><text x="102" y="170" class="sub">mimi 只听 Mac 正在播放的声音</text>
    <rect x="250" y="515" width="1100" height="295" rx="26" fill="#080a0e" fill-opacity=".89" stroke="#fff" stroke-opacity=".13" stroke-width="2"/><rect x="770" y="532" width="60" height="5" rx="2.5" fill="#fff" fill-opacity=".27"/>
    <rect x="274" y="540" width="310" height="34" rx="17" fill="#4069a8" fill-opacity=".11" stroke="#6496f0" stroke-opacity=".19"/>
    <g fill="#7aa8ff"><rect x="292" y="553" width="3" height="8" rx="1.5"/><rect x="299" y="550" width="3" height="14" rx="1.5"/><rect x="306" y="552" width="3" height="10" rx="1.5"/></g>
    <text x="320" y="563" font-size="16" font-weight="700" fill="#8bb4ff">English</text><text x="390" y="563" font-size="16" fill="#fff" opacity=".45">→</text><text x="415" y="563" font-size="16" font-weight="700" fill="#fff" opacity=".73">简体中文</text><path d="M500 548v18" stroke="#fff" opacity=".14"/><g stroke="#91b6ff" opacity=".8"><path d="M514 551v12M508 557h12" stroke-width="2"/></g><text x="529" y="562" font-size="14" font-weight="700" fill="#fff" opacity=".63">高质量</text><path d="M581 553l5 5 5-5" fill="none" stroke="#fff" opacity=".38" stroke-width="2"/>
    <g fill="#000" fill-opacity=".31"><rect x="1200" y="540" width="28" height="28" rx="8"/><rect x="1234" y="540" width="28" height="28" rx="8"/><rect x="1268" y="540" width="28" height="28" rx="8"/><rect x="1302" y="540" width="28" height="28" rx="8"/></g>
    <g fill="#fff" opacity=".68"><rect x="1208" y="548" width="3" height="12" rx="1"/><rect x="1217" y="548" width="3" height="12" rx="1"/><path d="M1242 558l6-7 6 7" fill="none" stroke="#fff" stroke-width="2"/><path d="M1276 557l7-9 6 6-7 8z"/><path d="M1279 560h10" stroke="#fff" stroke-width="2"/></g>
    <g transform="translate(1316,554)" stroke="#fff" opacity=".68" fill="none" stroke-width="2"><circle r="5"/><circle r="1.5" fill="#fff" stroke="none"/><path d="M0-9v2M0 7v2M-9 0h2M7 0h2M-6.5-6.5l1.5 1.5M5 5l1.5 1.5M6.5-6.5L5-5M-5 5l-1.5 1.5"/></g>
    <text x="306" y="636" text-anchor="end" class="timestamp" opacity="0.28">10:24</text><text x="334" y="636" class="subtitle" opacity="0.34" font-size="16">我们先把这周上线的风险过一遍。</text>
    <text x="306" y="691" text-anchor="end" class="timestamp" opacity="0.46">10:25</text><text x="334" y="691" class="subtitle" opacity="0.58" font-size="18">API 迁移现在还是最主要的阻塞点。</text>
    <text x="306" y="746" text-anchor="end" class="timestamp" opacity="0.46">10:26</text><text x="334" y="746" class="subtitle" opacity="1" font-size="23" font-weight="650">先小范围放量，盯住错误率，再决定要不要继续扩大。</text>
    <g fill="#7aa8ff" opacity=".62"><rect x="778" y="772" width="4" height="8" rx="2"/><rect x="789" y="768" width="4" height="16" rx="2"/><rect x="800" y="765" width="4" height="22" rx="2"/><rect x="811" y="769" width="4" height="15" rx="2"/><rect x="822" y="771" width="4" height="9" rx="2"/></g>
</svg>